<?xml version="1.0" standalone="no"?>
<!DOCTYPE svg PUBLIC "-//W3C//DTD SVG 20010904//EN"
 "http://www.w3.org/TR/2001/REC-SVG-20010904/DTD/svg10.dtd">
<svg version="1.0" xmlns="http://www.w3.org/2000/svg"
 width="300.000000pt" height="155.000000pt" viewBox="0 0 300.000000 155.000000"
 preserveAspectRatio="xMidYMid meet">
<metadata>
Created by potrace 1.10, written by Peter Selinger 2001-2011
</metadata>
<g transform="translate(0.000000,155.000000) scale(0.100000,-0.100000)"
fill="#fb3737" stroke="none">
<path d="M1426 1523 c-54 -29 -90 -34 -276 -43 -359 -17 -549 -76 -675 -211
-49 -53 -75 -102 -75 -144 0 -59 59 -125 111 -125 43 0 35 23 -16 48 -77 37
-70 98 21 182 59 54 113 79 218 101 83 18 368 39 356 27 -3 -3 -39 -33 -82
-66 -81 -65 -161 -157 -223 -260 -21 -35 -42 -65 -45 -67 -4 -3 -64 -16 -133
-29 -150 -29 -201 -50 -244 -99 -33 -38 -56 -98 -46 -123 9 -23 20 -14 55 46
21 35 49 64 78 82 41 25 70 33 233 63 l29 5 -28 -48 c-123 -211 -316 -374
-459 -389 -60 -6 -88 5 -128 53 -30 36 -66 44 -87 19 -31 -37 16 -77 117 -101
94 -22 178 -6 296 54 128 66 226 161 317 308 39 62 74 115 78 118 4 2 24 7 44
11 l37 7 -6 -36 c-4 -29 -2 -36 10 -36 16 0 67 48 67 63 0 4 27 37 60 72 34
36 58 70 55 75 -13 21 -44 8 -92 -40 -42 -42 -58 -51 -98 -57 l-48 -6 43 64
c127 189 259 322 333 335 116 21 199 61 234 113 36 54 26 65 -31 34z"/>
<path d="M2710 1374 c-110 -63 -201 -158 -271 -283 -42 -75 -48 -81 -148 -144
-58 -37 -106 -65 -109 -63 -2 3 49 78 113 168 165 230 178 257 111 244 -17 -4
-40 -6 -51 -6 -84 5 -104 2 -145 -18 -66 -32 -159 -120 -255 -240 -111 -139
-128 -199 -65 -232 25 -13 87 2 149 36 24 13 46 23 48 20 10 -10 -42 -77 -80
-101 -23 -15 -71 -49 -107 -75 l-65 -48 -245 -5 c-340 -8 -525 -39 -685 -116
-104 -50 -174 -119 -225 -221 -31 -62 -39 -164 -15 -211 22 -43 54 -79 72 -79
19 0 16 11 -13 41 -42 44 -44 105 -5 184 38 76 89 123 186 170 111 54 200 68
423 68 106 -1 216 -4 243 -8 l51 -7 -20 -22 c-81 -87 -80 -161 1 -180 70 -16
129 22 255 167 31 36 35 37 97 37 36 0 130 9 210 20 408 58 643 174 735 365
65 133 110 364 79 401 -11 13 -25 15 -86 9 -40 -4 -77 -4 -82 -1 -6 4 -4 19 5
41 42 102 -9 145 -106 89z m84 -22 c9 -15 -15 -83 -27 -79 -16 5 -31 51 -24
71 7 17 42 22 51 8z m-62 -89 c23 -49 24 -47 -78 -178 -84 -108 -157 -178
-180 -173 -28 6 -21 70 17 146 57 117 207 296 217 261 2 -8 13 -33 24 -56z
m-416 -28 c4 -9 -28 -69 -79 -148 -81 -125 -90 -135 -160 -179 -41 -26 -87
-50 -102 -54 -28 -7 -28 -6 -22 31 12 76 165 269 264 335 50 33 90 39 99 15z
m631 -31 c11 -29 -15 -132 -52 -210 -87 -182 -261 -300 -493 -338 -119 -20
-362 -31 -362 -17 0 6 20 41 43 79 39 60 58 77 173 155 l128 87 16 -32 c22
-47 54 -60 99 -42 48 19 163 140 229 242 l54 81 51 4 c29 2 65 4 80 5 17 1 30
-4 34 -14z m-967 -538 c-12 -21 -30 -36 -41 -36 -10 0 -19 3 -19 8 0 9 74 72
79 67 2 -2 -7 -20 -19 -39z m-180 -227 c0 -18 -103 -121 -134 -134 -40 -17
-56 -9 -56 27 0 33 13 63 43 96 17 18 31 22 84 22 38 0 63 -4 63 -11z"/>
<path d="M1955 1266 c-16 -8 -52 -30 -80 -50 -37 -27 -51 -32 -53 -22 -2 8 2
24 7 35 28 51 -14 52 -78 1 -20 -15 -55 -34 -78 -41 -24 -7 -43 -16 -43 -21 0
-11 17 -10 58 2 29 8 33 7 28 -7 -17 -42 -231 -335 -254 -347 -50 -26 -165
-57 -175 -47 -12 12 -1 32 129 216 116 165 138 204 128 230 -8 20 -27 19 -55
-4 -19 -15 -34 -18 -70 -14 -58 7 -124 -22 -218 -92 -145 -110 -271 -324 -247
-420 6 -22 12 -25 49 -25 46 0 138 38 174 72 21 20 24 20 41 5 24 -22 45 -21
149 5 79 19 86 20 95 5 23 -41 47 -18 179 168 121 171 167 223 227 254 20 10
27 9 53 -13 34 -29 71 -33 109 -11 l25 14 -23 1 c-57 1 -83 47 -42 72 22 14
27 48 8 48 -7 -1 -26 -7 -43 -14z m-527 -127 c6 -49 -187 -309 -284 -383 -86
-66 -153 -71 -125 -9 51 111 241 343 321 391 63 37 84 38 88 1z"/>
</g>
</svg>
