<?xml version="1.0" encoding="utf-8"?>
<!-- Generator: Adobe Illustrator 19.0.0, SVG Export Plug-In . SVG Version: 6.00 Build 0)  -->
<svg version="1.1" id="Image_Tracing_by_NICF-Nettie"
	 xmlns="http://www.w3.org/2000/svg" xmlns:xlink="http://www.w3.org/1999/xlink" x="0px" y="0px" viewBox="0 0 2000 651.2"
	 style="enable-background:new 0 0 2000 651.2;" xml:space="preserve">
<g>
	<path d="M1309.3,410c0-55.4,0-110.9,0-166.7c16.8,0,33.2,0,50,0c0,93.1,0,186.1,0,279c-16.5,0-32.8,0-49.4,0
		c-27.5-56.6-54.7-112.6-82-168.6c-0.4,0.1-0.8,0.2-1.2,0.3c0,55,0,110,0,165.1c-17,0-33.4,0-50.1,0c0-92.2,0-183.8,0-275.8
		c16.5,0,33,0,50.1,0c27.1,55.4,54.3,111.1,81.5,166.8C1308.5,410.2,1308.9,410.1,1309.3,410z"/>
	<path d="M341.5,243.2c18.6,0,36.4,0,54.4,0c14.2,30.8,28.4,61.6,43,93.4c14.6-31.7,28.8-62.4,43.1-93.3c17.9,0,35.7,0,54.4,0
		c-22.1,46.5-44.1,92.7-66.2,139.2c23.3,47.9,46.6,95.9,70.2,144.5c-18.4,0.8-36.1,1.6-54.3,2.4c-15.6-33-31.3-66-47.3-99.8
		c-16.1,35.4-31.8,69.9-47.5,104.5c-18,1-35.8,2-54.5,3.1c23.6-51.4,47-102.1,70.6-153.4C385.6,337.2,363.7,290.4,341.5,243.2z"/>
	<path d="M164.4,499c33.4-1.9,66.2-3.8,99.5-5.8c0,16.2,0,31.9,0,48.1c-49.9,3.6-99.6,7.1-149.6,10.7c0-103,0-205.7,0-308.8
		c48.5,0,96.8,0,145.6,0c0,15.8,0,31.5,0,48.3c-31.8,0-63.5,0-95.5,0c0,25.5,0,50,0,75.2c29-0.8,58-1.6,87.5-2.4
		c-3.9,16.5-7.7,32.4-11.5,48.7c-25.4,1-50.5,2.1-75.9,3.1C164.4,443.8,164.4,471.2,164.4,499z"/>
	<path d="M940.4,243.2c18.3,0,36.2,0,54.6,0c24.8,91.3,49.6,182.6,74.5,274.3c-41.9,0-83.2,0-125.1,0c3.9-15,7.7-29.6,11.5-44.3
		c16.6,0,32.7,0,49.4,0c-12.5-48-24.8-95.6-37.1-143.2c-0.3,0-0.6,0.1-0.9,0.1c-16.2,62.4-32.4,124.8-48.6,187.7
		c-17.5,0-34.9,0-52.6,0C890.8,426.3,915.5,335,940.4,243.2z"/>
	<path d="M1738,541.3c0-99.4,0-198.5,0-298c48.4,0,96.8,0,145.6,0c0,16.1,0,32.4,0,48.8c-31.6,0-63.3,0-95.3,0c0,24.1,0,48.3,0,73.2
		c28.9,0.9,57.8,1.8,87.3,2.7c-3.9,16.6-7.6,32.6-11.5,49.2c-25.2-1-50.3-2.1-75.7-3.1c0,27.3,0,54.3,0,81.9c33,2.1,66,4.1,99.4,6.2
		c0,16.6,0,33,0,49.8C1837.8,548.5,1788.1,544.9,1738,541.3z"/>
	<path d="M644.3,243.1c1.8-0.1,3.4-0.2,5-0.2c35.7,0,71.3,0,107,0c14.2,0,27,3.7,38,12.8c11.5,9.4,17.5,21.6,17.6,36.5
		c0,12.3-0.2,24.7,0.1,37c0.4,19-7.8,33.3-23.5,43.5c-29.8,19.3-59.6,38.5-89.4,57.7c-1.5,1-3.1,2-5,3.3c0,29,0,58.3,0,88.5
		c-16.7,0-33,0-49.7,0C644.3,429.8,644.3,336.6,644.3,243.1z M694.3,377.7c0.7-0.2,1.2-0.2,1.6-0.5c20.3-13.1,40.6-26.1,60.9-39.2
		c3.6-2.3,4.8-5.7,4.8-9.8c-0.1-8.8,0.1-17.7,0.1-26.5c0-9.5-4.2-13.8-13.7-13.9c-9.5-0.1-19,0-28.5,0c-8.3,0-16.6,0-25.2,0
		C694.3,318,694.3,347.7,694.3,377.7z"/>
	<path d="M1472.6,527.3c3.9-15.5,7.6-30.1,11.4-45.2c1.8,0,3.4-0.1,5,0c24.3,0.9,48.6,1.8,72.9,2.8c10.5,0.4,15-3.9,15.1-14.4
		c0-11.2-0.2-22.3,0.1-33.5c0.1-5.7-2.1-9.4-6.7-12.4c-22.8-15.3-45.4-31-68.3-46.2c-17.4-11.5-26.3-27.1-25.6-48.2
		c0.4-11.6,0.4-23.3,0-35c-1.1-27.8,20.7-50.2,46.9-51.5c32.7-1.7,65.6-0.4,99.2-0.4c-3.8,15.5-7.5,30.9-11.3,46.2
		c-11.6,0-22.8,0-33.9,0c-12.2,0-24.3-0.2-36.5-0.2c-9.7,0-14.1,4.3-14.2,13.9c0,9.2,0.2,18.3-0.1,27.5c-0.2,5.5,2,9,6.5,12
		c22.7,15.2,45.2,30.7,67.9,45.8c17.6,11.7,26.7,27.7,26,49.1c-0.4,14.3-0.6,28.7,0.1,43c1.4,30.1-22.9,52.4-53.1,51.4
		c-23.6-0.8-47.3-2.2-70.9-3.3C1493.2,528.2,1483.3,527.8,1472.6,527.3z"/>
	<path d="M948.6,131.6c13.2,0,25.4,0,38.1,0c0-15.1,0-29.8,0-45c4.3,0,8.2,0,12.5,0c0,35.3,0,70.6,0,106.3c-3.9,0-7.7,0-12.1,0
		c0-15.9,0-31.8,0-48c-13,0-25.3,0-38.1,0c0,15.9,0,31.7,0,47.9c-4.3,0-8.2,0-12.6,0c0-35.1,0-70.5,0-106.2c3.8,0,7.7,0,12.2,0
		C948.6,101.3,948.6,116.2,948.6,131.6z"/>
	<path d="M1089.9,98.8c-10.8,0-21.4,0-32.4,0c0,11.1,0,21.8,0,33.1c9.8,0,19.5,0,29.8,0c-1,4.4-1.8,8.1-2.7,12.3
		c-8.9,0-17.8,0-27.1,0c0,12.1,0,23.7,0,35.8c11.1,0,22.3,0,33.9,0c0,4.4,0,8.3,0,12.7c-15.4,0-30.9,0-46.8,0c0-35.2,0-70.4,0-106.1
		c15,0,30,0,45.3,0C1089.9,90.6,1089.9,94.5,1089.9,98.8z"/>
	<path d="M885.3,193c-4.6,0-8.3,0-12.5,0c0-31.2,0-62.2,0-93.8c-8.2,0-15.7,0-23.7,0c0-4.5,0-8.4,0-12.6c19.8,0,39.7,0,59.8,0
		c0,4,0,7.9,0,12.3c-7.8,0-15.4,0-23.6,0C885.3,130.5,885.3,161.5,885.3,193z"/>
</g>
</svg>
