<?xml version="1.0" encoding="UTF-8" standalone="no"?>
<svg xmlns:ffdec="https://www.free-decompiler.com/flash" xmlns:xlink="http://www.w3.org/1999/xlink" ffdec:objectType="shape" height="57.15px" width="191.75px" xmlns="http://www.w3.org/2000/svg">
  <g transform="matrix(1.0, 0.0, 0.0, 1.0, 95.85, 28.6)">
    <path d="M17.6 -18.3 Q18.95 -17.1 19.35 -14.5 L19.6 -9.75 19.6 19.6 10.9 19.6 10.9 17.95 Q9.3 19.35 6.8 19.75 4.3 20.15 2.25 19.3 0.5 18.4 -0.05 16.25 L-0.6 12.1 -0.65 4.95 Q-0.5 1.9 1.45 0.2 L2.55 -0.6 10.85 -5.5 10.85 -11.9 Q10.7 -12.55 10.35 -12.85 L9.15 -13.05 Q8.5 -12.95 8.3 -12.3 8.05 -11.25 8.1 -9.35 L8.1 -6.25 -0.65 -6.25 -0.65 -11.5 Q-0.6 -14.5 0.0 -16.35 0.8 -19.1 4.75 -19.55 9.8 -20.2 15.0 -19.5 16.75 -18.95 17.6 -18.3 M42.9 -17.15 Q44.05 -15.15 44.2 -11.05 L44.2 19.6 35.5 19.6 35.4 -10.85 Q35.35 -11.7 34.9 -12.2 34.1 -12.75 33.25 -12.2 32.6 -11.7 32.7 -10.35 L32.7 19.6 23.9 19.6 23.9 -19.5 32.7 -19.5 32.75 -17.75 Q34.1 -19.15 36.25 -19.6 L40.4 -19.35 Q42.0 -18.7 42.9 -17.15 M48.55 -15.65 Q49.0 -17.5 50.25 -18.45 52.0 -19.6 56.65 -19.75 L56.65 -19.8 62.05 -19.7 Q65.1 -19.45 66.65 -18.05 67.65 -16.95 68.05 -15.05 L68.35 -11.55 68.35 12.35 67.7 16.25 Q67.05 18.25 65.35 19.05 L53.8 19.7 Q50.3 19.25 49.2 17.2 48.4 15.85 48.2 13.6 L48.15 9.4 48.15 -12.15 Q48.2 -14.5 48.55 -15.65 M76.1 -19.35 L80.3 -19.75 80.3 -19.8 87.55 -19.5 Q90.1 -18.95 91.15 -16.9 92.0 -15.05 92.05 -11.85 L92.05 -6.25 83.35 -6.25 83.3 -11.85 82.9 -12.85 81.55 -13.05 Q80.7 -12.75 80.65 -10.85 L80.65 -7.75 Q80.65 -5.9 81.55 -5.05 83.45 -3.75 87.7 -1.9 91.6 0.05 92.0 3.1 L92.05 12.95 91.5 16.35 Q90.85 18.15 89.4 18.9 87.45 19.7 84.4 19.9 L79.1 19.8 75.65 19.3 Q73.8 18.7 73.05 17.5 72.0 15.4 71.95 11.85 L71.85 5.65 72.15 5.5 80.5 5.5 80.65 5.65 80.65 11.5 Q80.85 12.85 81.4 13.15 L82.6 13.15 Q83.45 12.65 83.35 11.25 L83.3 6.05 Q83.15 4.85 81.15 3.75 L77.05 1.8 Q74.7 0.6 73.3 -0.8 72.4 -1.7 72.15 -3.25 71.95 -4.15 71.85 -6.25 L71.85 -12.0 Q71.95 -15.4 72.9 -17.2 73.9 -18.85 76.1 -19.35 M58.05 -13.05 Q57.2 -12.95 57.0 -12.0 L57.0 10.65 Q56.9 12.5 57.45 12.95 L59.05 13.0 59.6 12.1 59.6 -8.95 59.6 -10.8 59.3 -12.55 Q59.0 -13.15 58.05 -13.05 M94.3 -19.15 L95.4 -18.7 Q95.85 -18.3 95.85 -17.6 95.85 -16.95 95.4 -16.5 94.85 -16.1 94.3 -16.05 93.55 -16.1 93.1 -16.5 92.65 -16.95 92.65 -17.6 92.65 -18.3 93.1 -18.7 93.55 -19.15 94.3 -19.15 M94.3 -18.3 L93.95 -18.3 93.95 -17.75 93.95 -18.3 94.3 -18.3 93.95 -17.75 94.3 -17.75 Q94.65 -17.75 94.65 -18.05 L94.3 -18.3 M94.2 -17.5 L93.95 -17.5 93.95 -16.7 93.65 -16.7 93.65 -18.5 94.35 -18.5 Q94.95 -18.6 94.95 -18.05 94.95 -17.6 94.5 -17.5 L94.2 -17.5 94.5 -17.5 95.0 -16.7 94.75 -16.7 94.2 -17.5 M94.3 -18.9 Q92.9 -18.95 92.9 -17.6 92.9 -16.3 94.3 -16.3 95.5 -16.3 95.5 -17.6 95.5 -18.95 94.3 -18.9 M8.3 4.75 Q8.0 6.5 8.2 10.55 L8.2 11.95 Q8.3 12.8 8.85 13.15 L10.05 13.15 10.8 12.0 10.8 2.8 Q8.7 3.7 8.3 4.75 M-85.9 -17.15 Q-86.7 -16.85 -86.7 -15.7 L-86.7 -10.2 Q-86.6 -9.1 -85.6 -8.25 L-83.7 -7.2 Q-82.05 -6.15 -78.3 -4.3 -75.3 -2.35 -75.0 0.65 L-74.85 14.45 Q-75.1 17.8 -77.2 19.05 -78.9 19.8 -81.75 19.95 L-86.8 20.0 -91.75 19.55 Q-94.4 18.9 -95.25 16.85 L-95.85 13.9 -95.85 2.1 -86.7 2.1 -86.7 11.35 Q-86.7 12.1 -86.15 12.55 L-84.8 12.8 Q-83.95 12.5 -83.9 11.65 L-83.9 3.4 Q-83.95 1.95 -86.25 0.8 L-92.55 -2.8 Q-95.65 -4.7 -95.85 -8.65 L-95.85 -18.85 Q-95.4 -22.85 -92.65 -23.65 L-81.4 -24.25 -78.05 -23.6 -76.95 -23.05 Q-74.7 -21.55 -74.85 -17.0 L-74.85 -8.85 -83.9 -8.85 -84.0 -16.05 Q-84.1 -16.7 -84.45 -17.0 L-85.9 -17.15 M-53.5 -26.0 L-52.3 -25.95 -52.3 -24.7 -53.4 -24.7 -53.5 -23.2 -52.2 -23.15 -52.2 -21.85 -55.1 -21.85 -55.1 -28.6 -52.25 -28.6 -52.25 -27.25 -53.4 -27.25 -53.5 -26.0 M-60.5 -28.6 L-58.8 -28.6 -58.8 -21.85 -60.5 -21.85 -60.5 -24.55 -61.2 -24.7 -61.35 -21.85 -62.9 -21.85 -62.9 -28.6 -61.35 -28.6 -61.35 -26.2 -60.5 -26.2 -60.5 -28.6 M-54.6 -19.15 Q-52.05 -18.45 -51.45 -15.7 -51.0 -13.6 -51.0 -10.55 L-51.0 12.4 Q-51.2 15.05 -51.55 16.25 -52.2 18.2 -53.75 18.9 -55.7 19.75 -58.7 19.9 L-64.05 19.8 Q-69.05 19.55 -70.3 17.0 -71.2 14.9 -71.2 9.75 L-71.15 -12.75 Q-70.9 -17.85 -68.15 -18.9 -66.2 -19.7 -63.15 -19.75 L-57.7 -19.7 -54.6 -19.15 M-66.2 -27.25 L-67.3 -27.25 -67.3 -21.85 -69.0 -21.85 -69.0 -27.25 -70.05 -27.25 -70.05 -28.6 -66.2 -28.6 -66.2 -27.25 M-61.75 -12.95 Q-62.25 -12.75 -62.45 -12.0 L-62.45 11.25 Q-62.55 12.55 -61.75 13.15 L-60.6 13.15 Q-59.95 13.0 -59.8 11.95 L-59.8 -10.2 -59.8 -11.65 Q-59.85 -12.5 -60.3 -12.85 L-61.75 -12.95 M-29.95 -19.05 Q-28.85 -18.3 -28.35 -17.55 -26.9 -15.35 -26.75 -11.0 L-26.75 11.5 Q-27.15 17.85 -30.6 19.35 L-34.7 19.7 Q-36.9 19.25 -38.25 17.8 L-38.35 17.85 -38.35 28.55 -47.05 28.55 -47.05 -19.5 -38.35 -19.5 -38.35 -17.8 -37.3 -18.5 Q-35.95 -19.6 -33.7 -19.75 -31.65 -19.9 -29.95 -19.05 M-37.55 -12.2 Q-38.2 -11.95 -38.35 -10.2 L-38.25 10.65 -37.9 12.1 -36.3 12.35 Q-36.0 12.15 -35.65 11.25 L-35.65 -10.85 -36.0 -11.95 Q-36.4 -12.6 -37.55 -12.2 M-2.8 -21.0 L-2.55 -20.6 Q-2.0 -20.55 -1.9 -20.35 -1.6 -20.0 -2.15 -19.5 L-1.7 -13.15 -2.0 -12.75 -6.75 -12.4 -8.75 -11.75 Q-9.95 -11.3 -10.05 -10.2 L-9.55 -8.85 Q-8.75 -7.1 -9.55 -4.55 L-10.2 -2.55 -11.35 -2.55 -13.5 -1.6 Q-14.75 -0.95 -14.8 0.2 L-15.0 3.0 -15.0 16.35 -15.35 16.7 -15.6 17.2 -15.6 18.2 -15.8 19.15 -20.1 19.35 -20.25 20.15 -22.4 20.1 Q-22.55 19.1 -22.95 18.9 L-23.6 18.4 Q-23.7 17.85 -23.25 17.5 L-22.6 16.85 -22.6 -1.25 -22.7 -7.85 -22.85 -7.95 -22.85 -15.4 -23.45 -15.85 -23.2 -16.2 -22.8 -16.5 -22.75 -17.15 Q-22.75 -17.6 -22.4 -17.75 L-21.95 -18.3 -22.15 -19.05 Q-22.3 -19.45 -21.95 -19.6 L-20.9 -19.55 -19.8 -19.35 -18.3 -20.0 Q-17.5 -20.4 -17.15 -21.05 L-16.7 -21.95 Q-16.5 -22.05 -16.3 -21.55 -15.9 -19.3 -14.95 -18.95 L-11.95 -19.25 -9.3 -20.15 Q-8.25 -20.4 -6.1 -21.2 L-3.05 -21.3 -2.8 -21.0 M-14.6 -10.65 Q-15.45 -10.25 -15.4 -9.3 L-14.6 -8.5 Q-13.25 -8.25 -12.0 -6.75 -11.65 -6.05 -11.9 -5.45 -12.2 -5.4 -12.3 -5.8 L-12.5 -6.3 Q-13.5 -7.3 -14.6 -7.4 L-15.55 -7.2 -15.55 -5.45 Q-15.55 -4.5 -14.95 -4.05 -14.05 -3.3 -12.85 -3.45 -11.3 -3.9 -10.55 -6.45 -10.6 -8.75 -11.05 -9.5 -11.35 -10.2 -12.0 -10.65 -12.55 -11.0 -13.3 -11.0 L-14.6 -10.65" fill="#ff0000" fill-rule="evenodd" stroke="none"/>
    <path d="M94.3 -19.15 Q93.55 -19.15 93.1 -18.7 92.65 -18.3 92.65 -17.6 92.65 -16.95 93.1 -16.5 93.55 -16.1 94.3 -16.05 94.85 -16.1 95.4 -16.5 95.85 -16.95 95.85 -17.6 95.85 -18.3 95.4 -18.7 L94.3 -19.15 M93.95 -17.75 L93.95 -18.3 94.3 -18.3 94.65 -18.05 Q94.65 -17.75 94.3 -17.75 L93.95 -17.75 94.3 -18.3 M94.5 -17.5 Q94.95 -17.6 94.95 -18.05 94.95 -18.6 94.35 -18.5 L93.65 -18.5 93.65 -16.7 93.95 -16.7 93.95 -17.5 94.2 -17.5 94.5 -17.5 95.0 -16.7 94.75 -16.7 94.2 -17.5 M94.3 -18.9 Q95.5 -18.95 95.5 -17.6 95.5 -16.3 94.3 -16.3 92.9 -16.3 92.9 -17.6 92.9 -18.95 94.3 -18.9 Z" fill="none" stroke="#ff0059" stroke-linecap="round" stroke-linejoin="round" stroke-width="0.1"/>
  </g>
</svg>
