<?xml version="1.0" encoding="UTF-8" standalone="no"?>
<svg
   width="152pt"
   height="124pt"
   viewBox="0 0 152 124"
   version="1.1"
   id="svg17"
   xmlns="http://www.w3.org/2000/svg"
   xmlns:svg="http://www.w3.org/2000/svg">
  <defs
     id="defs21" />
  <g
     id="surface1">
    <path
       style="fill:#f805e2;fill-opacity:1;fill-rule:evenodd;stroke:none"
       d="m 0.39843,54.64023 c 0,0.32422 0.20703,0.5 0.50781,0.56641 0.35937,0.0703 0.71484,0.16797 1.07422,0.26172 0.64062,0.16406 1.28906,0.31641 1.93359,0.46875 0.78516,0.17969 1.57031,0.35156 2.35547,0.51953 0.76172,0.16016 1.51953,0.32422 2.27734,0.49609 0.59375,0.13282 1.1836,0.26172 1.77735,0.39063 0.24219,0.0508 0.61328,0.15625 0.84765,0.15625 0.41016,0 0.625,-0.21094 0.625,-0.62109 0,-0.30469 -0.16406,-0.49219 -0.45703,-0.56641 L 6.92968,55.27695 6.72655,17.86289 6.85546,17.84729 17.03905,60.89807 c 0.0742,0.29687 0.26172,0.45703 0.56641,0.45703 0.32031,0 0.54297,-0.14063 0.625,-0.45313 l 9.14453,-41.45703 0.12891,0.0156 0.10156,36.07422 -3.82813,0.46093 c -0.33984,0.0703 -0.5664,0.25782 -0.5664,0.6211 0,0.17968 0.0508,0.33984 0.16797,0.47656 0.11718,0.13672 0.27343,0.19531 0.45312,0.19531 l 0.0977,0.004 10.79687,-1.46094 c 0.36328,0 0.50781,-0.22656 0.50781,-0.56641 0,-0.17187 -0.0391,-0.33203 -0.14062,-0.47265 -0.10547,-0.14453 -0.25781,-0.19922 -0.42969,-0.19922 -0.32422,0 -0.65234,0.0352 -0.97656,0.0781 -0.41797,0.0547 -0.83594,0.11329 -1.25391,0.17969 -0.41797,0.0703 -0.83593,0.12891 -1.2539,0.1836 -0.29297,0.0391 -0.58594,0.0742 -0.87891,0.11328 l -0.0859,0.0117 2.29688,-42.19532 4.72265,-0.46875 c 0.39844,0.004 0.5625,-0.24218 0.5625,-0.61718 0,-0.41016 -0.21484,-0.6211 -0.62109,-0.6211 h -0.0469 l -8.96485,0.88672 c -0.32031,0 -0.49219,0.20703 -0.55859,0.50391 l -8.53516,38.54297 -8.6875,-39.79297 c -0.0742,-0.32813 -0.28125,-0.50391 -0.625,-0.50391 -0.39453,0 -1.03906,0.19531 -1.44531,0.28906 -0.93359,0.20703 -1.86719,0.41407 -2.80078,0.625 -0.96875,0.21485 -1.9375,0.42969 -2.90235,0.64844 -0.5664,0.12891 -1.15234,0.23438 -1.71093,0.42188 -0.32813,0.0703 -0.5,0.27734 -0.5,0.61328 0,0.41015 0.21484,0.62109 0.625,0.62109 0.22265,0 0.54297,-0.0859 0.76562,-0.13281 0.47656,-0.0937 0.94531,-0.19922 1.41406,-0.3086 0.48047,-0.11718 0.96094,-0.23046 1.44141,-0.33984 0.24609,-0.0586 0.49609,-0.11328 0.74219,-0.17187 l 0.0898,-0.0234 0.20703,41.85937 -0.0898,-0.0234 C 5.32816,54.90988 5.06645,54.85909 4.80082,54.8005 4.29301,54.69503 3.7852,54.57784 3.28129,54.46456 2.79691,54.35128 2.30473,54.238 1.81645,54.12472 1.5977,54.07392 1.23832,53.96847 1.02348,53.96847 c -0.4336,0 -0.625,0.25391 -0.625,0.67187 z m 151.20312,-10.1289 c 0,-0.65625 -0.26172,-1.19922 -0.75,-1.63281 -0.54297,-0.48047 -1.17578,-0.86329 -1.83203,-1.17969 -0.77734,-0.375 -1.57812,-0.70313 -2.39062,-1 -0.81641,-0.29688 -1.61719,-0.63672 -2.38282,-1.04297 -0.66015,-0.34766 -1.28515,-0.77734 -1.80859,-1.3125 -0.49219,-0.50391 -0.71875,-1.11328 -0.71875,-1.8125 0,-0.90234 0.27734,-1.70313 1.0625,-2.20703 0.77734,-0.5 1.66797,-0.6875 2.58203,-0.6875 1.04297,0 2.08203,0.20312 2.96094,0.78906 0.87109,0.58203 1.17187,1.49219 1.17187,2.50391 0,0.42187 -0.0273,0.84375 -0.082,1.26562 -0.0547,0.42188 -0.0976,0.84766 -0.13281,1.26953 -0.004,0.17188 0.0391,0.32422 0.14453,0.46094 0.10938,0.14063 0.26953,0.19141 0.44141,0.19141 0.17578,0 0.34375,-0.0352 0.48828,-0.13282 0.14844,-0.0937 0.21094,-0.23828 0.21484,-0.41406 l 0.16016,-2.1875 0.54297,-6.17969 c 0,-0.18359 -0.0625,-0.33203 -0.20703,-0.44531 -0.14454,-0.11328 -0.3125,-0.16015 -0.49219,-0.16015 -0.30078,0 -0.50781,0.13281 -0.58985,0.4375 -0.24218,0.58593 -0.63281,1.07031 -1.26562,1.23437 -0.63281,0.16406 -1.29297,0.22266 -1.94531,0.22266 -0.30469,0 -0.61328,-0.008 -0.91797,-0.0234 -0.3086,-0.0156 -0.61719,-0.0273 -0.92578,-0.0273 -0.78907,0.0351 -1.5625,0.1914 -2.29688,0.48046 -0.71094,0.27344 -1.36719,0.66407 -1.9414,1.16407 -0.5586,0.48047 -1.01172,1.05078 -1.34375,1.70703 -0.33594,0.67578 -0.49219,1.39844 -0.49219,2.14844 0,0.88671 0.20703,1.73437 0.76953,2.43359 0.52344,0.65234 1.16016,1.18359 1.88672,1.58984 0.76953,0.4336 1.58594,0.78125 2.42578,1.05469 0.80469,0.26172 1.60937,0.52344 2.41406,0.78125 0.63672,0.20313 1.27735,0.43359 1.86719,0.74219 0.375,0.19922 0.73437,0.49609 0.73437,0.95703 0,0.33203 -0.082,0.64062 -0.28906,0.90234 -0.20312,0.25782 -0.47265,0.44922 -0.76953,0.58594 -0.32422,0.14844 -0.66406,0.24609 -1.01562,0.29297 -0.34375,0.0469 -0.6836,0.0742 -1.02735,0.0742 -0.39844,0 -0.79297,-0.0352 -1.1914,-0.0742 -0.51172,-0.0508 -1.01563,-0.16016 -1.50782,-0.30469 -0.45703,-0.13281 -0.90234,-0.32812 -1.29297,-0.60156 -0.3125,-0.21875 -0.51953,-0.50391 -0.51953,-0.89844 0,-0.45312 0.16407,-0.76953 0.65625,-0.76953 0.19922,0 0.4961,0.0234 0.64844,0.16406 0.11719,0.10938 0.21484,0.23828 0.28906,0.38282 0.0625,0.13671 0.13672,0.27343 0.21875,0.40234 0.0977,0.16016 0.29688,0.19922 0.47266,0.19922 0.39844,0 0.64453,-0.17969 0.64453,-0.59766 0,-0.5664 -0.31641,-0.97265 -0.78125,-1.26172 -0.44922,-0.27734 -0.95312,-0.48047 -1.49219,-0.48047 -0.58203,0 -1.125,0.15625 -1.57812,0.53516 -0.4336,0.36719 -0.64063,0.83984 -0.64063,1.41016 0,0.60547 0.23047,1.10937 0.69532,1.5039 0.48828,0.41016 1.05078,0.71485 1.64453,0.9336 0.64453,0.23437 1.3125,0.40234 1.99218,0.5 0.57422,0.082 1.16016,0.14843 1.74219,0.14843 0.67188,0 1.33985,-0.0859 1.99219,-0.25 0.64453,-0.16015 1.26562,-0.40625 1.83203,-0.7539 0.53906,-0.32813 1,-0.7461 1.37109,-1.25781 0.38282,-0.52735 0.55469,-1.12891 0.55469,-1.77344 z m -21.18359,-9.94531 c 0,0.9375 -0.0508,1.875 -0.10547,2.80859 -0.0703,1.17578 -0.25781,2.33984 -0.55469,3.48047 -0.27734,1.04297 -0.67969,2.05859 -1.28515,2.95312 -0.5586,0.82813 -1.33594,1.23047 -2.33204,1.23047 -0.38671,0 -0.78515,-0.0781 -1.10546,-0.30469 -0.30079,-0.20703 -0.53907,-0.47656 -0.71875,-0.78906 -0.20313,-0.33594 -0.33985,-0.69922 -0.42188,-1.08203 -0.082,-0.36328 -0.13281,-0.73828 -0.13281,-1.10937 0,-1.14063 0.0664,-2.27735 0.18359,-3.40625 0.1211,-1.13672 0.25,-2.27344 0.39453,-3.41407 0.0742,-0.40625 0.14063,-0.8125 0.20703,-1.21875 0.0664,-0.40625 0.10547,-0.82031 0.10547,-1.23437 0,-0.1836 -0.0547,-0.34766 -0.16797,-0.4961 -0.125,-0.16796 -0.30859,-0.20703 -0.51953,-0.17187 l -4.85937,0.30859 c -0.39844,0 -0.56641,0.24219 -0.56641,0.6211 0,0.17968 0.0625,0.33593 0.20313,0.45312 0.13672,0.11719 0.29687,0.16797 0.47265,0.16797 l 2.19922,-0.15234 -0.0117,0.0859 c -0.0976,0.89844 -0.17968,1.79688 -0.24609,2.69922 -0.0703,0.96094 -0.10547,1.92578 -0.10547,2.89453 0,0.82032 0.0898,1.64454 0.23828,2.45313 0.15235,0.84375 0.42188,1.65234 0.82422,2.41016 0.38281,0.71875 0.89453,1.33593 1.55859,1.8125 0.72657,0.52734 1.58985,0.71484 2.47657,0.71484 1.04687,0 2.04297,-0.26172 2.88672,-0.89453 0.70312,-0.53125 1.28515,-1.17578 1.74218,-1.92578 l 0.11719,-0.1875 0.23828,2.85156 c 0.0703,0.36719 0.28516,0.57031 0.66406,0.57031 l 4.16797,-0.3125 c 0.4336,0 0.61719,-0.25781 0.61719,-0.67187 0,-0.17578 -0.0586,-0.32422 -0.20312,-0.42969 -0.14063,-0.0977 -0.30079,-0.13672 -0.46875,-0.13672 l -2.625,0.15234 0.26171,-13.23828 c 0.0391,-0.1914 -0.0312,-0.34765 -0.17578,-0.47265 -0.14453,-0.125 -0.3125,-0.17969 -0.51172,-0.14063 l -1.99609,0.20703 c -0.41406,0 -0.55078,0.30078 -0.55078,0.67188 0,0.375 0.0156,0.7539 0.0508,1.125 0.0352,0.37109 0.0547,0.74219 0.0547,1.11719 z m -12.54688,5.19921 c 0,-0.84765 -0.25781,-1.60546 -0.80859,-2.25 -0.55078,-0.64453 -1.21875,-1.15234 -1.97266,-1.53515 -0.79687,-0.40235 -1.64453,-0.69531 -2.51953,-0.88281 -0.80469,-0.17579 -1.63281,-0.29688 -2.46094,-0.29688 -0.84765,0 -1.70312,0.10547 -2.54296,0.24219 -0.97266,0.15625 -1.92188,0.42969 -2.82032,0.83203 -0.83984,0.37109 -1.61328,0.86328 -2.27343,1.50391 -0.65625,0.63671 -0.95313,1.42578 -0.95313,2.33203 0,0.92187 0.26172,1.76172 0.86719,2.46093 0.59375,0.6875 1.3164,1.21094 2.13672,1.58985 0.87109,0.40234 1.79687,0.68359 2.74218,0.85937 0.86329,0.15625 1.7461,0.26563 2.625,0.26563 0.83204,0 1.67188,-0.1211 2.48829,-0.29297 0.90625,-0.19531 1.78125,-0.50781 2.60156,-0.94141 0.78125,-0.41015 1.48047,-0.9414 2.05469,-1.61328 0.55859,-0.65234 0.83593,-1.41406 0.83593,-2.27344 z m -3.5664,-0.10937 c 0,1.14453 -0.44532,2.07812 -1.30469,2.82422 -0.87891,0.76172 -1.89453,1.13672 -3.05469,1.13672 -1.09765,0 -2.11719,-0.28516 -3.03125,-0.89844 -0.94531,-0.63672 -1.33203,-1.57422 -1.33203,-2.6875 0,-1.22266 0.40234,-2.27734 1.44141,-2.98047 0.99609,-0.67187 2.10937,-0.98047 3.30468,-0.98047 1.01563,0 2.13282,0.17188 2.94922,0.82031 0.82813,0.65625 1.02735,1.76954 1.02735,2.76563 z m -18.5,9.76953 -2.35547,0.25391 c -0.35938,0.0781 -0.51953,0.3164 -0.51953,0.67578 0,0.16797 0.0469,0.32812 0.17187,0.44922 0.125,0.125 0.28516,0.14843 0.47266,0.11718 h 0.0234 l 6.91406,-0.78125 c 0.36719,-0.0742 0.5664,-0.28906 0.5664,-0.67187 0,-0.17969 -0.0586,-0.33594 -0.19531,-0.45313 -0.13672,-0.11718 -0.30078,-0.16796 -0.47656,-0.16796 -0.43359,0 -0.86719,0.0547 -1.29297,0.13281 -0.39453,0.0703 -0.79297,0.1289 -1.19141,0.16797 l -0.082,0.008 0.99219,-35.21484 c 0.0352,-0.16407 0.004,-0.32422 -0.11719,-0.44532 -0.125,-0.12109 -0.28515,-0.16797 -0.45312,-0.16797 H 98.164 l -6.66797,0.98829 c -0.37109,0 -0.55468,0.19921 -0.55468,0.57031 0,0.17578 0.0508,0.33594 0.16796,0.47265 0.11719,0.13672 0.27344,0.19922 0.45313,0.19922 0.54297,0 1.09766,-0.0859 1.63281,-0.18359 0.51172,-0.0937 1.02344,-0.1875 1.53906,-0.26563 l 0.0781,-0.0117 z m -4.14844,-7.61328 c 0,-0.375 -0.043,-0.75391 -0.12891,-1.12109 -0.0898,-0.36719 -0.16797,-0.73438 -0.23437,-1.10157 -0.37891,-1.29297 -1,-2.46093 -1.89844,-3.46875 -0.95312,-1.07422 -2.23047,-1.49218 -3.64453,-1.49218 -1.13281,0 -2.13672,0.35546 -2.98438,1.10546 -0.84765,0.75 -1.50781,1.65235 -2,2.66407 -0.51562,1.05859 -0.8789,2.17968 -1.10546,3.33593 -0.19922,1.04297 -0.33985,2.11329 -0.33985,3.17579 0,1 0.14844,2 0.36719,2.97265 0.24219,1.05469 0.61719,2.07031 1.12891,3.02344 0.49218,0.91016 1.13671,1.70312 1.94921,2.35156 0.83594,0.66406 1.82032,0.94531 2.87891,0.94531 0.35938,0 0.71484,-0.0508 1.05859,-0.1289 0.38282,-0.0859 0.75,-0.21094 1.10938,-0.3711 0.35156,-0.15625 0.67969,-0.35937 0.97656,-0.60156 0.28516,-0.23437 0.51563,-0.51562 0.66797,-0.85547 0.043,-0.0859 0.0547,-0.18359 0.0547,-0.27734 0,-0.41016 -0.21094,-0.62109 -0.6211,-0.62109 -0.1914,0 -0.34375,0.14062 -0.45703,0.28125 -0.16015,0.19921 -0.36328,0.3789 -0.5664,0.53515 -0.27344,0.21485 -0.57422,0.39063 -0.88282,0.54297 -0.40234,0.20313 -0.89062,0.25781 -1.33984,0.25781 -0.70703,0 -1.28906,-0.26562 -1.73828,-0.8164 -0.48047,-0.58594 -0.80469,-1.26563 -1.01172,-1.98828 -0.22266,-0.76954 -0.375,-1.5625 -0.44531,-2.35938 -0.0547,-0.66016 -0.10547,-1.31641 -0.10547,-1.97656 0,-0.46094 0.0117,-0.92188 0.0273,-1.37891 0.0156,-0.41015 0.0391,-0.8164 0.0703,-1.22656 l 0.004,-0.0586 8.58985,-0.67579 c 0.3789,-0.0664 0.62109,-0.26562 0.62109,-0.67187 z M 85.74999,35.8707 c 0.46094,0 0.87109,0.13672 1.16797,0.50391 0.28906,0.35937 0.5,0.76953 0.64453,1.20703 0.16016,0.47656 0.25391,0.97266 0.28516,1.47266 0.0312,0.43359 0.0547,0.86718 0.0547,1.30078 0,0.1914 0,0.3789 0,0.57031 0,0.16016 -0.0117,0.31641 -0.0351,0.47266 l -0.0117,0.0586 -5.23828,0.40625 0.0195,-0.0937 c 0.0976,-0.46094 0.20312,-0.91797 0.30859,-1.37891 0.16016,-0.6875 0.3711,-1.36328 0.625,-2.02343 0.24219,-0.6211 0.54297,-1.22266 0.9375,-1.76172 0.30469,-0.41797 0.70703,-0.73438 1.24219,-0.73438 z M 69.4414,29.60898 70.84765,29.50742 c 0.34765,-0.0625 0.625,-0.23047 0.625,-0.62109 0,-0.1836 -0.0664,-0.34375 -0.19922,-0.47656 -0.13282,-0.13282 -0.29297,-0.17969 -0.4961,-0.14063 h -0.0312 l -6.75,0.625 c -0.34375,0.0664 -0.57031,0.25 -0.57031,0.62109 0,0.40625 0.21484,0.61719 0.62109,0.61719 0.35938,0 0.71875,-0.0195 1.07813,-0.0508 0.32031,-0.0312 0.63672,-0.0742 0.95312,-0.13281 l 0.0703,-0.0156 0.0117,0.0742 c 0.0742,0.45313 0.23437,0.92188 0.35546,1.36719 0.30079,1.14844 0.6211,2.29297 0.9375,3.4375 0.42188,1.49609 0.84766,2.98828 1.28516,4.48047 0.44531,1.52344 0.87891,3.05078 1.30859,4.58203 0.34766,1.25 0.69532,2.5 1.04688,3.75 0.17969,0.65234 0.35937,1.30469 0.54687,1.95703 0.0742,0.28906 0.26563,0.44922 0.57032,0.44922 0.3125,0 0.53906,-0.13672 0.62109,-0.45703 l 6.94531,-19.65235 2.16016,-0.15234 c 0.34375,-0.0664 0.57422,-0.25 0.57422,-0.62109 0,-0.41016 -0.21485,-0.6211 -0.625,-0.6211 -0.96094,0 -1.92188,0.0508 -2.87891,0.13282 -0.95703,0.082 -1.91797,0.16015 -2.8789,0.23437 -0.41016,0 -0.61719,0.21094 -0.61719,0.62109 0,0.40625 0.21484,0.61719 0.62109,0.61719 0.39453,0 0.78906,-0.0195 1.17969,-0.0508 0.33203,-0.0273 0.66406,-0.0586 0.99609,-0.0898 l 0.10938,-0.008 -5.36328,15.2461 z M 56.76561,49.9918 v -6.35547 c 0,-0.9375 0.0664,-1.875 0.1836,-2.8086 0.12109,-0.96875 0.33203,-1.92187 0.625,-2.85546 0.29687,-0.92969 0.69531,-1.82422 1.19922,-2.66016 0.49218,-0.82031 1.10937,-1.54688 1.84765,-2.15234 0.28907,-0.22266 0.59375,-0.42188 0.91016,-0.60157 0.30859,-0.17578 0.64062,-0.28125 0.99609,-0.28125 1.1875,0 1.88672,0.50782 1.88672,1.75 0,0.36719 -0.125,0.67578 -0.40234,0.91797 -0.27344,0.2461 -0.59375,0.36328 -0.96094,0.36328 -0.14453,0 -0.29297,-0.0195 -0.42578,-0.0742 -0.13281,-0.0547 -0.26953,-0.082 -0.41016,-0.082 -0.39843,0 -0.625,0.1875 -0.625,0.59375 0,0.35938 0.23047,0.55469 0.55469,0.65235 0.28906,0.0781 0.60547,0.15234 0.90625,0.15234 0.77344,0 1.48047,-0.22266 2.12109,-0.66016 0.67188,-0.46484 0.96094,-1.13671 0.96094,-1.9414 0,-0.92578 -0.30859,-1.72656 -1.12109,-2.22656 -0.75781,-0.46875 -1.59766,-0.6875 -2.48438,-0.6875 -1.21093,0 -2.37109,0.26953 -3.39843,0.92187 -0.90235,0.57031 -1.66016,1.3125 -2.28125,2.17578 l -0.13282,0.17969 V 32.0231 c 0,-0.41016 -0.21093,-0.6211 -0.62109,-0.6211 l -5.86719,0.25782 c -0.42969,0 -0.61719,0.26171 -0.61719,0.67578 0,0.17187 0.0586,0.32422 0.20313,0.42968 0.14062,0.0977 0.30078,0.13672 0.46875,0.13672 l 3.09766,-0.10156 1.04296,17.41016 -3.04296,0.30468 c -0.39454,0.043 -0.56641,0.29297 -0.56641,0.67188 0,0.19141 0.0781,0.34375 0.22656,0.45703 0.13672,0.0977 0.28906,0.15234 0.46875,0.10938 l 8.14844,-0.77735 c 0.17187,0 0.32031,-0.0625 0.42187,-0.20312 0.10157,-0.13672 0.14063,-0.30078 0.14063,-0.46875 0,-0.17578 -0.0586,-0.32813 -0.20313,-0.42969 C 59.8789,49.7731 59.71874,49.73403 59.55077,49.73403 Z M 40.41796,49.44102 c 0.74609,0 1.50781,-0.13282 2.23437,-0.29688 0.67969,-0.15234 1.375,-0.35547 2,-0.66406 l 0.11328,-0.0547 -0.008,0.12109 c -0.004,0.0742 -0.0117,0.14454 -0.0195,0.21875 -0.0156,0.17969 -0.0156,0.35938 0,0.53907 0.0195,0.17187 0.082,0.32812 0.19531,0.45703 0.13282,0.15625 0.32422,0.17969 0.51563,0.14844 l 4.13281,-0.52344 c 0.37891,-0.0352 0.5625,-0.25781 0.5625,-0.63281 0,-0.1836 -0.0781,-0.32032 -0.23047,-0.41407 -0.13672,-0.0859 -0.28125,-0.14062 -0.4375,-0.14062 l -1.89062,0.2539 0.008,-0.0898 c 0.0664,-0.76953 0.13281,-1.53906 0.19531,-2.30859 0.0703,-0.81641 0.10547,-1.64063 0.10547,-2.46094 0,-1.24219 -0.11328,-2.48828 -0.39453,-3.69922 -0.24219,-1.05859 -0.66406,-2.07031 -1.31641,-2.94141 -0.63281,-0.85156 -1.46093,-1.48828 -2.42187,-1.92578 -1.13672,-0.51562 -2.42188,-0.67968 -3.65625,-0.67968 -0.56641,0 -1.12891,0.0586 -1.6836,0.15625 -0.58593,0.10156 -1.15234,0.28515 -1.6875,0.55078 -0.50781,0.2539 -0.95312,0.60156 -1.29687,1.05468 -0.37109,0.48438 -0.50781,1.07032 -0.50781,1.66797 0,0.47657 0.12109,0.91797 0.39843,1.30469 0.27344,0.37891 0.61329,0.68359 1.01172,0.92578 0.41797,0.25391 0.8711,0.4336 1.34766,0.55078 0.44531,0.11328 0.90625,0.1836 1.37109,0.1836 0.16016,0 0.30078,-0.0625 0.42188,-0.16797 0.13672,-0.11719 0.19922,-0.27344 0.19922,-0.45313 0,-0.30468 -0.16016,-0.48437 -0.45703,-0.53906 -0.30469,-0.0586 -0.60938,-0.11719 -0.91407,-0.18359 -0.32812,-0.0703 -0.6289,-0.20703 -0.89843,-0.40625 -0.33594,-0.25391 -0.39844,-0.76953 -0.39844,-1.16016 0,-0.39453 0.0898,-0.77734 0.33203,-1.09375 0.22656,-0.29297 0.51172,-0.51953 0.84375,-0.6875 0.35156,-0.17578 0.72656,-0.29297 1.11328,-0.35937 0.37109,-0.0625 0.74219,-0.10547 1.11719,-0.10547 0.76953,0 1.5625,0.13281 2.22656,0.54297 0.57422,0.35156 1.03516,0.82031 1.36719,1.41406 0.34765,0.61719 0.5625,1.29297 0.67578,1.98828 0.12109,0.74609 0.18359,1.50391 0.18359,2.25781 v 0.82422 l -0.0898,-0.0195 c -0.41797,-0.0977 -0.84375,-0.15625 -1.27344,-0.19922 -0.46875,-0.0469 -0.9414,-0.0781 -1.41406,-0.0781 -0.77734,0 -1.55469,0.0234 -2.33203,0.0508 -0.94531,0.0351 -1.88672,0.15234 -2.8086,0.36718 -0.84765,0.19532 -1.65625,0.51954 -2.37109,1.02344 -0.69922,0.4961 -1.01172,1.19531 -1.01172,2.04297 0,0.73438 0.20313,1.41406 0.7461,1.93359 0.51953,0.5 1.14453,0.85938 1.82031,1.10547 0.73047,0.26563 1.49219,0.42969 2.26172,0.4961 0.67187,0.0586 1.34375,0.10547 2.01953,0.10547 z m 4.44922,-5.53125 -0.0508,2.94531 -0.0234,0.0195 c -0.58203,0.51172 -1.25391,0.85547 -2.00781,1.03906 -0.75782,0.19141 -1.53516,0.28516 -2.31641,0.28516 -0.36328,0 -0.73047,-0.0274 -1.08984,-0.0781 -0.37891,-0.0508 -0.74219,-0.15234 -1.08594,-0.3164 -0.32031,-0.14453 -0.61719,-0.33985 -0.84766,-0.61328 -0.24219,-0.28516 -0.32812,-0.63282 -0.32812,-1 0,-0.49219 0.16797,-0.91797 0.53515,-1.25 0.37891,-0.34766 0.82032,-0.60938 1.29297,-0.8086 0.50781,-0.21094 1.03906,-0.36328 1.58594,-0.44922 0.46094,-0.0703 0.93359,-0.1289 1.40234,-0.1289 0.4961,0 0.9961,0.0273 1.48828,0.0781 0.46875,0.0508 0.9375,0.13672 1.39454,0.26172 l 0.0508,0.0156"
       id="path4" />
    <path
       style="fill:#f805e2;fill-opacity:1;fill-rule:evenodd;stroke:none"
       d="m 96.55468,59.00352 2.32031,-0.25391 c 0.19922,-0.004 0.29687,-0.11719 0.29297,-0.3125 -0.004,-0.21484 -0.13672,-0.30859 -0.33985,-0.30469 h -0.0195 l -4.44922,0.48438 c -0.16406,0.004 -0.25781,0.10156 -0.29296,0.25781 L 90.26174,76.45273 85.53908,58.46055 c -0.043,-0.17188 -0.16406,-0.25 -0.33594,-0.2461 -0.19921,0.004 -0.51562,0.0977 -0.71875,0.14453 -0.46484,0.10547 -0.92578,0.20704 -1.38671,0.3125 -0.47657,0.10547 -0.95704,0.21485 -1.4336,0.32422 -0.28125,0.0625 -0.57031,0.11719 -0.84765,0.20703 -0.16797,0.0352 -0.26172,0.13672 -0.25782,0.3125 0.004,0.21094 0.13672,0.30469 0.33985,0.30079 0.11718,-0.004 0.26953,-0.043 0.38281,-0.0664 0.23828,-0.0469 0.46875,-0.10156 0.70312,-0.15625 0.23438,-0.0586 0.47266,-0.11328 0.70704,-0.16797 0.10156,-0.0234 0.19921,-0.0469 0.30078,-0.0703 l 0.0859,-0.0195 0.55079,19.05078 -0.0899,-0.0156 c -0.10547,-0.0234 -0.21484,-0.0391 -0.32031,-0.0586 -0.25391,-0.0469 -0.50781,-0.0937 -0.75781,-0.14063 -0.2461,-0.0469 -0.48828,-0.0937 -0.73047,-0.14062 -0.11719,-0.0234 -0.28906,-0.0664 -0.40235,-0.0664 -0.21875,0.004 -0.33203,0.1211 -0.32421,0.33985 0.004,0.16797 0.12109,0.25 0.27343,0.27734 0.1836,0.0312 0.35938,0.0703 0.53516,0.10938 0.32422,0.0703 0.64844,0.13281 0.96875,0.19921 0.39062,0.0742 0.78516,0.14454 1.17578,0.21485 0.37891,0.0664 0.75781,0.13281 1.13672,0.20312 0.29687,0.0547 0.59375,0.11328 0.88672,0.16407 0.125,0.0234 0.30469,0.0664 0.42969,0.0625 0.20312,-0.004 0.32812,-0.10157 0.32421,-0.3125 -0.004,-0.16016 -0.10156,-0.25 -0.25,-0.28125 l -2.18359,-0.42579 -0.49219,-16.61328 0.12891,-0.0156 5.39844,19.13281 c 0.0469,0.14844 0.15234,0.22266 0.3125,0.21875 0.15625,-0.004 0.28515,-0.0664 0.32422,-0.23047 l 4,-18.5625 0.1289,0.0117 0.42578,15.98438 -1.875,0.24609 c -0.17187,0.0312 -0.30078,0.125 -0.29687,0.3125 0.004,0.0898 0.0351,0.16797 0.0976,0.23437 0.0664,0.0664 0.14844,0.0937 0.24219,0.0937 h 0.0469 l 5.35547,-0.76562 c 0.18359,-0.004 0.26953,-0.11328 0.26562,-0.29297 -0.004,-0.082 -0.0273,-0.16016 -0.082,-0.22656 -0.0586,-0.0742 -0.14453,-0.10156 -0.23438,-0.0977 -0.16015,0.004 -0.32421,0.0234 -0.48437,0.043 -0.21094,0.0312 -0.41797,0.0625 -0.625,0.0977 -0.20703,0.0312 -0.41406,0.0625 -0.62109,0.0937 -0.1211,0.0156 -0.24219,0.0312 -0.36329,0.0508 l -0.0859,0.008 z m 18.41406,14.91015 c -0.55859,0.11719 -0.73828,0.52344 -0.8125,1.03906 -0.008,0.30079 0.0469,0.64844 0.24219,0.89454 0.19922,0.30859 0.5039,0.33203 0.83203,0.37109 0.32812,0.004 0.66406,-0.0469 0.88281,-0.32031 0.22656,-0.26563 0.34766,-0.8711 0.25781,-1.20703 -0.0586,-0.23829 -0.13672,-0.48047 -0.34375,-0.63282 -0.24609,-0.17968 -0.76953,-0.17578 -1.05859,-0.14453 z m -1.57031,1.38672 c 0,-0.32812 -0.14453,-0.58594 -0.39453,-0.78906 -0.28516,-0.23047 -0.61329,-0.41016 -0.94922,-0.5586 -0.40235,-0.17578 -0.81641,-0.33203 -1.23438,-0.46875 -0.41797,-0.13671 -0.82812,-0.29687 -1.22656,-0.48828 -0.33203,-0.16015 -0.65234,-0.35937 -0.92578,-0.61328 -0.24219,-0.22656 -0.36328,-0.5039 -0.36328,-0.83203 0,-0.43359 0.15625,-0.78906 0.53906,-1.01562 0.39844,-0.23438 0.85547,-0.32032 1.31641,-0.32032 0.52734,0 1.0625,0.0899 1.51562,0.36719 0.42969,0.26172 0.59375,0.66797 0.59375,1.15625 0,0.19531 -0.0156,0.39453 -0.043,0.58984 -0.0273,0.19922 -0.0508,0.39844 -0.0703,0.59375 0,0.0899 0.0234,0.17188 0.082,0.23829 0.0625,0.0742 0.15234,0.10156 0.24609,0.10156 0.0899,0 0.1836,-0.0195 0.26172,-0.0664 0.082,-0.0469 0.1211,-0.12109 0.1211,-0.21875 l 0.0859,-1.02734 0.27735,-2.89844 c 0,-0.0977 -0.0352,-0.17578 -0.11719,-0.23437 -0.0781,-0.0547 -0.16797,-0.0781 -0.26562,-0.0781 -0.15625,0 -0.27735,0.0586 -0.32813,0.22656 -0.125,0.27735 -0.32812,0.48438 -0.63281,0.5586 -0.32422,0.0781 -0.66406,0.10547 -0.9961,0.10547 -0.16015,0 -0.3164,-0.008 -0.47656,-0.0117 -0.15625,-0.008 -0.3164,-0.0117 -0.47265,-0.0117 -0.41016,0.0156 -0.8086,0.0859 -1.19532,0.22265 -0.36328,0.13282 -0.70312,0.3125 -1.00781,0.55079 -0.28125,0.22656 -0.52344,0.49218 -0.69531,0.8125 -0.17578,0.3164 -0.25781,0.66015 -0.25781,1.02343 0,0.42969 0.11328,0.83203 0.40234,1.15625 0.27734,0.31641 0.60937,0.56641 0.98047,0.75391 0.39844,0.20703 0.82031,0.36719 1.2539,0.49609 0.41407,0.125 0.82813,0.2461 1.24219,0.36719 0.32813,0.0977 0.65625,0.20313 0.96094,0.34766 0.17187,0.0859 0.36328,0.21484 0.36328,0.42968 0,0.14844 -0.0391,0.28907 -0.14062,0.40625 -0.10547,0.11719 -0.24219,0.20704 -0.38672,0.26563 -0.16797,0.0703 -0.34375,0.11719 -0.52344,0.13672 -0.17188,0.0234 -0.34766,0.0351 -0.52344,0.0351 -0.20312,0 -0.41015,-0.0156 -0.60937,-0.0351 -0.26563,-0.0234 -0.52344,-0.0742 -0.77735,-0.14063 -0.23047,-0.0625 -0.45703,-0.15234 -0.66015,-0.28125 -0.14453,-0.0937 -0.25782,-0.21875 -0.25782,-0.39843 0,-0.21875 0.0899,-0.33985 0.31641,-0.33985 0.0937,0 0.24609,0.0117 0.32031,0.0742 0.0586,0.0469 0.10547,0.10547 0.14063,0.17188 0.0351,0.0664 0.0742,0.1289 0.11719,0.1914 0.0586,0.0859 0.16796,0.10156 0.26171,0.10156 0.20313,0 0.35547,-0.082 0.35547,-0.30468 0,-0.28516 -0.17968,-0.48047 -0.41797,-0.61328 -0.23437,-0.13672 -0.5,-0.23047 -0.77734,-0.23047 -0.29687,0 -0.58594,0.0742 -0.82422,0.25781 -0.22656,0.17187 -0.33984,0.39844 -0.33984,0.67969 0,0.30468 0.1289,0.54687 0.36719,0.73047 0.2539,0.19921 0.54687,0.33984 0.85156,0.4414 0.33594,0.11328 0.67969,0.19141 1.03125,0.23438 0.29687,0.043 0.60156,0.0742 0.90234,0.0742 0.34766,0 0.69141,-0.043 1.03125,-0.1211 0.33203,-0.0742 0.65235,-0.1914 0.94922,-0.35547 0.27734,-0.15234 0.51953,-0.35156 0.71484,-0.59765 0.19922,-0.25 0.28907,-0.53516 0.28907,-0.84766 z m -11.24219,2.57031 v -2.83203 c 0,-0.42187 0.0312,-0.84375 0.0859,-1.26172 0.0586,-0.4375 0.15625,-0.87109 0.29297,-1.29297 0.14062,-0.42968 0.32812,-0.83593 0.5625,-1.21875 0.23046,-0.3789 0.51953,-0.71875 0.86328,-1.0039 0.13281,-0.10547 0.27343,-0.19922 0.42187,-0.28906 0.14063,-0.082 0.29297,-0.13672 0.45703,-0.14454 0.51563,-0.0234 0.85938,0.16016 0.85938,0.72266 0,0.16016 -0.0586,0.29297 -0.17969,0.40234 -0.125,0.11329 -0.26953,0.16797 -0.4375,0.17579 -0.0625,0.004 -0.13281,0 -0.19141,-0.0234 -0.0664,-0.0195 -0.13281,-0.0312 -0.20312,-0.0274 -0.19141,0.008 -0.31641,0.10547 -0.31641,0.30469 0,0.17969 0.1211,0.26953 0.28125,0.3086 0.14063,0.0312 0.28907,0.0547 0.4336,0.0469 0.36718,-0.0156 0.70703,-0.13281 1.00781,-0.34375 0.3125,-0.22266 0.46094,-0.53516 0.46094,-0.91406 0,-0.42969 -0.14844,-0.79297 -0.53907,-1.00391 -0.36718,-0.19922 -0.76562,-0.27734 -1.17968,-0.25781 -0.57422,0.0273 -1.125,0.17578 -1.60938,0.49219 -0.37109,0.24218 -0.6914,0.54297 -0.96484,0.88672 l -0.12891,0.16015 v -0.9414 c 0,-0.20313 -0.12109,-0.30079 -0.32031,-0.29297 l -2.75781,0.24609 c -0.21094,0.008 -0.3125,0.13281 -0.3125,0.33984 0,0.0859 0.0351,0.16407 0.10937,0.21094 0.0703,0.043 0.15235,0.0586 0.23438,0.0547 l 1.42968,-0.10938 0.48829,7.76172 -1.41016,0.19922 c -0.19141,0.0274 -0.28516,0.14844 -0.28516,0.33985 0,0.0937 0.043,0.17187 0.1211,0.22265 0.0703,0.0469 0.14453,0.0703 0.24218,0.043 l 3.82422,-0.52734 c 0.0859,-0.004 0.16016,-0.0391 0.21094,-0.10938 0.0508,-0.0664 0.0703,-0.14453 0.0703,-0.23047 0,-0.0859 -0.0312,-0.16015 -0.10547,-0.21093 -0.0703,-0.043 -0.15234,-0.0586 -0.23437,-0.0547 l -1.28125,0.17187"
       id="path6" />
    <path
       style="fill:#f805e2;fill-opacity:1;fill-rule:nonzero;stroke:none"
       d="m 116.60546,19.6793 -0.84766,12.1289 c -0.004,0.0508 -0.0469,0.0859 -0.0976,0.0859 -0.0469,-0.004 -0.082,-0.0391 -0.082,-0.0859 l -0.7539,-12.16406 -3.56641,2.93359 c -0.0391,0.0312 -0.0937,0.0274 -0.125,-0.0117 -0.0312,-0.0312 -0.0273,-0.082 0,-0.11329 l 3.07031,-3.49609 -5.43359,-0.73437 c -0.0508,-0.008 -0.0859,-0.0547 -0.0781,-0.10157 0.004,-0.043 0.0391,-0.0703 0.0742,-0.0781 l 5.46875,-0.76172 -3.19921,-3.6875 c -0.0312,-0.0391 -0.0274,-0.0977 0.0117,-0.12891 0.0312,-0.0273 0.082,-0.0273 0.11329,0 l 3.66406,3.09766 0.78515,-12.06641 c 0.004,-0.0508 0.0469,-0.0898 0.0937,-0.0859 0.0469,0.004 0.082,0.0391 0.0859,0.0859 l 0.75391,12.15625 3.92187,-3.50781 c 0.0352,-0.0352 0.0937,-0.0312 0.125,0.004 0.0312,0.0351 0.0312,0.0859 0,0.12109 l -3.45703,4.01172 5.33594,0.69922 c 0.0469,0.004 0.082,0.0508 0.0781,0.0976 -0.008,0.043 -0.0391,0.0703 -0.0781,0.0781 l -5.24609,0.76953 2.94921,3.52734 c 0.0312,0.0391 0.0234,0.0977 -0.0117,0.125 -0.0352,0.0312 -0.082,0.0312 -0.11719,0 l -3.4375,-2.89843"
       id="path8" />
    <path
       style="fill:#f805e2;fill-opacity:1;fill-rule:nonzero;stroke:none"
       d="m 18.16015,90.3668 -0.8711,10.76172 c -0.004,0.0469 -0.0547,0.082 -0.10937,0.0781 -0.0547,-0.004 -0.0937,-0.0352 -0.0977,-0.0781 l -0.86719,-10.71875 -4.48437,3.85937 c -0.043,0.0273 -0.10938,0.0195 -0.14453,-0.0117 -0.0312,-0.0312 -0.0312,-0.0742 0.004,-0.10547 l 3.79688,-4.47265 -6.63672,-0.8125 c -0.0547,-0.008 -0.0977,-0.0469 -0.0898,-0.0899 0.008,-0.0391 0.043,-0.0664 0.0898,-0.0703 l 6.34375,-0.90625 -3.25,-4.46875 c -0.0391,-0.0312 -0.0312,-0.0859 0.0117,-0.11328 0.0391,-0.0273 0.0937,-0.0273 0.13281,0 l 4.15234,3.85547 0.90625,-10.92578 c 0.004,-0.043 0.0547,-0.0781 0.10938,-0.0742 0.0547,0.004 0.0937,0.0351 0.0977,0.0781 l 0.90625,11.00391 4.08203,-3.75 c 0.043,-0.0312 0.10547,-0.0273 0.14453,0.004 0.0352,0.0312 0.0352,0.0781 0,0.10937 l -3.40235,4.20703 6.15625,0.92188 c 0.0547,0.004 0.0977,0.0469 0.0898,0.0898 -0.008,0.0391 -0.043,0.0664 -0.0859,0.0703 l -6.125,0.94922 3.39844,4.21485 c 0.0352,0.0351 0.0312,0.0859 -0.0156,0.11328 -0.0391,0.0234 -0.0937,0.0234 -0.13281,0 l -4.10937,-3.71875"
       id="path10" />
    <path
       style="fill:#f805e2;fill-opacity:1;fill-rule:evenodd;stroke:none"
       d="m 58.99999,1.53086 0.0781,2.57812 c 0,0.21094 0.14063,0.30079 0.34375,0.30079 0.1875,0 0.33985,-0.0703 0.33985,-0.28125 L 59.8945,1.21445 c 0,-0.0898 -0.0273,-0.16406 -0.0898,-0.22656 -0.0742,-0.0703 -0.15625,-0.0898 -0.26563,-0.0703 L 48.98048,1.21056 c -0.19531,0 -0.33594,0.0898 -0.33594,0.29687 l 0.10156,2.89844 c 0.043,0.21094 0.17188,0.3125 0.38672,0.3125 0.19531,0 0.3125,-0.10547 0.35156,-0.28906 l 0.082,-2.64063 3.28515,-0.0937 0.74219,20.8125 -2.52734,0.16406 c -0.20313,0 -0.33594,0.0937 -0.33594,0.30469 0,0.21485 0.13672,0.3086 0.33984,0.3086 h 0.0234 l 5.87109,-0.37891 c 0.20313,0 0.33594,-0.0937 0.33594,-0.30469 0,-0.21484 -0.13672,-0.30859 -0.33984,-0.30859 -0.32032,0 -0.63672,0.0117 -0.95703,0.0351 -0.27344,0.0195 -0.54297,0.043 -0.81641,0.0703 l -0.082,0.008 0.48047,-20.78125 z m 10.79297,16.64453 4.51953,-0.32812 c 0.20312,-0.0352 0.35156,-0.13672 0.35156,-0.35547 0,-0.19141 -0.0234,-0.37891 -0.0703,-0.5625 -0.0469,-0.17969 -0.0859,-0.35938 -0.12109,-0.53907 -0.20313,-0.65234 -0.53907,-1.22656 -1.00782,-1.72265 -0.51953,-0.54297 -1.21093,-0.74219 -1.94531,-0.74219 -0.59375,0 -1.13281,0.17188 -1.58984,0.55078 -0.44532,0.36328 -0.80078,0.8086 -1.06641,1.32031 -0.26953,0.51954 -0.46484,1.07422 -0.58203,1.64844 -0.10938,0.51563 -0.18359,1.04688 -0.18359,1.57422 0,0.49609 0.0781,0.98828 0.19531,1.46875 0.1289,0.52734 0.32812,1.02734 0.60156,1.49609 0.26563,0.46094 0.60938,0.85157 1.03516,1.16797 0.45312,0.33594 0.97656,0.46875 1.53515,0.46875 0.1875,0 0.37891,-0.0234 0.5625,-0.0625 0.20313,-0.043 0.39844,-0.10547 0.58985,-0.18359 0.1875,-0.0781 0.36328,-0.17969 0.52343,-0.30078 0.14844,-0.11328 0.27344,-0.25391 0.35938,-0.42969 0.0234,-0.043 0.0312,-0.0977 0.0312,-0.14844 0,-0.22265 -0.13281,-0.32812 -0.35156,-0.32812 -0.10547,0 -0.19141,0.0703 -0.25782,0.14453 -0.0859,0.0977 -0.1914,0.18359 -0.29687,0.26172 -0.14063,0.10547 -0.30078,0.1914 -0.46094,0.26562 -0.21094,0.0977 -0.46875,0.125 -0.69922,0.125 -0.35937,0 -0.66406,-0.12109 -0.90625,-0.39453 -0.24609,-0.28515 -0.41797,-0.61719 -0.52734,-0.97265 -0.11719,-0.37891 -0.19531,-0.76563 -0.23438,-1.16016 -0.0312,-0.32031 -0.0547,-0.64453 -0.0547,-0.96875 0,-0.22656 0.004,-0.45313 0.0156,-0.67969 0.008,-0.18359 0.0156,-0.36719 0.0312,-0.55078 z m 0.12109,-0.78125 c 0.0469,-0.19922 0.0977,-0.39844 0.14453,-0.59766 0.0859,-0.33984 0.19532,-0.67187 0.32813,-0.99609 0.1289,-0.30469 0.28906,-0.59766 0.49219,-0.86328 0.16406,-0.20703 0.37109,-0.35156 0.64062,-0.35156 0.23047,0 0.44531,0.0586 0.60156,0.23828 0.14844,0.17578 0.25782,0.375 0.33594,0.58984 0.082,0.23047 0.13281,0.47266 0.14844,0.71875 0.0156,0.21485 0.0312,0.42578 0.0312,0.64063 0,0.0937 0,0.1875 0,0.28125 0,0.0586 -0.004,0.12109 -0.0117,0.17968 l -0.008,0.0586 -2.72266,0.19531 z m -5.42969,4.24609 -0.85546,0.0664 c -0.21094,0.0156 -0.3125,0.14453 -0.3125,0.35547 0,0.0977 0.0469,0.17187 0.13281,0.21875 0.0859,0.043 0.17578,0.0547 0.27734,0.0391 l 3.25781,-0.33203 c 0.0899,0 0.17188,-0.0273 0.23047,-0.0977 0.0547,-0.0664 0.082,-0.14843 0.082,-0.23046 0,-0.0977 -0.0508,-0.17579 -0.13671,-0.21875 -0.082,-0.0469 -0.16797,-0.0664 -0.26172,-0.0664 l -0.84766,0.0898 0.008,-0.0859 c 0.0508,-0.60547 0.10938,-1.21094 0.17578,-1.8125 0.0742,-0.64454 0.10938,-1.28907 0.10938,-1.9375 0,-0.35547 -0.0352,-0.71485 -0.10938,-1.0625 -0.0703,-0.33204 -0.20312,-0.64454 -0.40234,-0.92579 -0.19922,-0.28515 -0.46875,-0.5 -0.77734,-0.66015 -0.3711,-0.19531 -0.8125,-0.25391 -1.23047,-0.25391 -0.29297,0 -0.58203,0.0508 -0.84766,0.17188 -0.24609,0.10937 -0.46875,0.25781 -0.66406,0.4414 -0.19531,0.1836 -0.36328,0.39453 -0.5,0.625 -0.043,0.0742 -0.0859,0.14844 -0.12891,0.22266 l -0.14453,0.25391 0.26953,-10.20313 c 0,-0.25781 -0.17187,-0.34375 -0.40625,-0.3125 l -3.33984,0.42578 c -0.0898,0.0156 -0.17578,0.0508 -0.22656,0.12891 -0.0469,0.0664 -0.0625,0.14844 -0.0625,0.22656 0,0.0977 0.0469,0.17188 0.13281,0.21875 0.0859,0.0469 0.17969,0.0586 0.27734,0.0391 l 1.60157,-0.20312 0.53906,14.59375 -1.50391,0.11328 c -0.21484,0 -0.3125,0.125 -0.3125,0.33203 0,0.0937 0.0391,0.16797 0.11719,0.21875 0.0742,0.0469 0.16406,0.0664 0.25,0.0664 l 3.8125,-0.28516 c 0.19922,-0.0195 0.31641,-0.125 0.31641,-0.33203 0,-0.0937 -0.0391,-0.17188 -0.11719,-0.22656 -0.0742,-0.0586 -0.16797,-0.0742 -0.26953,-0.0547 l -1.1875,0.0898 0.0234,-1.08203 c 0,-0.42969 0.0508,-0.85937 0.10938,-1.28515 0.0742,-0.55079 0.19922,-1.08985 0.37891,-1.61329 0.16796,-0.49609 0.40234,-0.96875 0.72656,-1.38281 0.29297,-0.375 0.67578,-0.57031 1.15625,-0.57031 0.17187,0 0.30078,0.0742 0.39453,0.21484 0.10937,0.15625 0.1875,0.33203 0.23828,0.51953 0.0547,0.19141 0.0898,0.39063 0.10938,0.59375 0.0117,0.14844 0.0273,0.29688 0.0273,0.44532 0,0.7539 -0.008,1.51172 -0.0273,2.26953 -0.0195,0.73047 -0.043,1.46094 -0.0781,2.1875 l -0.004,0.0664"
       id="path12" />
    <path
       style="fill:#f805e2;fill-opacity:1;fill-rule:evenodd;stroke:none"
       d="m 65.41405,63.6168 5.81641,-0.57032 c 0.48437,0 0.67969,-0.29296 0.67969,-0.75 0,-0.5 -0.25782,-0.7539 -0.75391,-0.7539 h -0.0586 l -11.00782,1.08984 c -0.39453,0 -0.60156,0.2461 -0.68359,0.61328 L 48.91014,110.65977 38.21873,61.70664 c -0.0898,-0.39844 -0.33984,-0.61328 -0.75391,-0.61328 -0.48828,0 -1.28125,0.24219 -1.78125,0.35547 -1.14453,0.2539 -2.29297,0.51172 -3.4375,0.76562 -1.1914,0.26563 -2.3789,0.53125 -3.57031,0.80078 -0.69531,0.15625 -1.41406,0.28907 -2.09766,0.51563 -0.39843,0.0859 -0.60546,0.33984 -0.60546,0.74609 0,0.5 0.25781,0.75391 0.7539,0.75391 0.27344,0 0.66406,-0.10547 0.94141,-0.16406 0.58203,-0.11328 1.16015,-0.2461 1.73828,-0.38282 0.58594,-0.14062 1.17578,-0.28125 1.76562,-0.41406 0.31641,-0.0742 0.63282,-0.14453 0.94922,-0.22265 l 0.0899,-0.0195 0.2539,51.47266 -0.0898,-0.0234 c -0.33594,-0.0781 -0.67188,-0.14843 -1.01172,-0.21875 -0.62109,-0.13281 -1.24219,-0.27343 -1.86328,-0.41797 -0.59766,-0.13671 -1.19922,-0.27734 -1.80078,-0.41406 -0.26563,-0.0625 -0.71094,-0.19531 -0.97266,-0.19531 -0.52734,0 -0.7539,0.3125 -0.7539,0.81641 0,0.39843 0.24609,0.60546 0.61328,0.6875 0.4414,0.0859 0.8789,0.20703 1.3164,0.32031 0.79297,0.20312 1.58594,0.39062 2.38282,0.57422 0.96093,0.22265 1.92578,0.4375 2.89453,0.64062 0.92968,0.19922 1.86328,0.39844 2.79687,0.60938 0.72656,0.16406 1.45313,0.32422 2.1836,0.48047 0.29296,0.0625 0.75,0.1914 1.03906,0.1914 0.49609,0 0.7539,-0.2539 0.7539,-0.75 0,-0.37109 -0.1914,-0.59765 -0.54687,-0.6875 l -5.42969,-1.26953 -0.2539,-46.21875 0.1289,-0.0156 12.57031,53.1289 c 0.0859,0.35547 0.31641,0.55078 0.6875,0.55078 0.38282,0 0.65625,-0.16406 0.75391,-0.54687 l 11.28906,-51.17969 0.12891,0.0156 0.125,44.57812 -4.71094,0.57031 c -0.41797,0.082 -0.6914,0.3086 -0.6914,0.75391 0,0.21484 0.0664,0.41016 0.20703,0.57422 0.14453,0.16797 0.33203,0.24219 0.55078,0.24219 h 0.12109 l 13.26172,-1.79297 c 0.44141,0 0.61719,-0.27735 0.61719,-0.6875 0,-0.20703 -0.0469,-0.40235 -0.17188,-0.57032 -0.125,-0.17578 -0.30859,-0.24609 -0.51953,-0.24609 -0.39844,0 -0.80078,0.0469 -1.19531,0.0977 -0.51563,0.0664 -1.03125,0.14062 -1.54688,0.22265 -0.51171,0.082 -1.02343,0.15625 -1.53906,0.22266 -0.37109,0.0508 -0.74219,0.0977 -1.11328,0.14453 l -0.0859,0.008 z m 26.74219,24.92578 c -0.0156,0.73047 0.0391,1.53515 0.47266,2.15625 0.46093,0.66797 1.20703,0.91406 1.96875,1.02734 0.80859,0 1.55078,-0.34375 2.01562,-1.01172 0.47266,-0.68359 0.64844,-2.10937 0.47266,-2.91015 -0.12891,-0.57422 -0.28516,-1.16797 -0.75391,-1.56641 -0.57422,-0.48828 -1.40234,-0.53125 -2.11328,-0.44141 -1.36328,0.32813 -1.90625,1.46094 -2.0625,2.7461 z m 46.00391,20.14062 -2.90625,0.3125 c -0.4336,0.0977 -0.625,0.38282 -0.625,0.81641 0,0.20703 0.0547,0.39844 0.20312,0.54687 0.15234,0.15235 0.34766,0.1836 0.57031,0.14063 l 0.0391,0.004 8.49218,-0.96094 c 0.44922,-0.0899 0.6875,-0.35547 0.6875,-0.81641 0,-0.21875 -0.0703,-0.40625 -0.23828,-0.54687 -0.16406,-0.14453 -0.36328,-0.20313 -0.57812,-0.20313 -0.53125,0 -1.0625,0.0625 -1.58594,0.16016 -0.49609,0.0898 -0.99609,0.16406 -1.5,0.21094 l -0.082,0.008 1.16015,-48.94922 c 0.004,-0.19531 0.008,-0.39844 -0.14062,-0.54688 -0.15234,-0.14843 -0.34375,-0.20703 -0.55078,-0.20703 h -0.1211 l -8.17968,1.21875 c -0.42969,0.0625 -0.6836,0.22266 -0.6836,0.6875 0,0.21485 0.0625,0.41016 0.20313,0.57422 0.14453,0.16406 0.33203,0.23828 0.55078,0.23828 0.66797,0 1.34766,-0.10547 2.00391,-0.22265 0.64062,-0.11719 1.27734,-0.23438 1.92187,-0.33203 l 0.082,-0.0117 z m -4.375,-12.15234 c 0,-0.44922 -0.0547,-0.89453 -0.16407,-1.32813 -0.11328,-0.43359 -0.21093,-0.86718 -0.29297,-1.30468 -0.48046,-1.54297 -1.26562,-2.91407 -2.375,-4.09375 -1.21093,-1.28516 -2.82421,-1.75782 -4.55468,-1.75782 -1.39453,0 -2.65625,0.40235 -3.73438,1.30469 -1.04297,0.8711 -1.8789,1.9336 -2.5,3.14453 -0.64062,1.2461 -1.10156,2.57032 -1.3789,3.94141 -0.25391,1.23437 -0.42969,2.49609 -0.42969,3.75781 0,1.17969 0.18359,2.36328 0.46094,3.50781 0.30078,1.25782 0.77343,2.45313 1.41406,3.57422 0.62109,1.08985 1.43359,2.02344 2.4375,2.77735 1.05469,0.79297 2.28906,1.11718 3.59765,1.11718 0.44532,0 0.89063,-0.0625 1.32422,-0.15234 0.47266,-0.10547 0.9375,-0.24609 1.38282,-0.43359 0.4375,-0.1875 0.84765,-0.42578 1.22265,-0.71485 0.35156,-0.27343 0.64453,-0.60156 0.83203,-1.00781 0.0547,-0.0977 0.0703,-0.21484 0.0703,-0.32422 0,-0.5 -0.28516,-0.72656 -0.76954,-0.72656 -0.22656,0 -0.41796,0.16016 -0.55859,0.32422 -0.20703,0.24219 -0.45703,0.45312 -0.71094,0.64062 -0.34375,0.25391 -0.72265,0.46094 -1.10937,0.64453 -0.50781,0.23829 -1.125,0.30079 -1.6836,0.30079 -0.875,0 -1.61328,-0.30079 -2.1914,-0.96875 -0.59375,-0.6875 -1,-1.48829 -1.26563,-2.35547 -0.28125,-0.90625 -0.46875,-1.84375 -0.55468,-2.79297 -0.0742,-0.77344 -0.13282,-1.55469 -0.13282,-2.33203 0,-0.54297 0.0117,-1.08985 0.0312,-1.63282 0.0234,-0.48828 0.0508,-0.97656 0.0899,-1.46484 l 0.004,-0.0625 10.76953,-0.79687 c 0.44922,-0.0742 0.76954,-0.30079 0.76954,-0.78516 z m -11.30469,-0.0234 c 0.12109,-0.55469 0.25781,-1.10937 0.39062,-1.66015 0.20313,-0.81641 0.46875,-1.61719 0.78516,-2.39454 0.30469,-0.73828 0.6875,-1.44921 1.17578,-2.08203 0.39063,-0.51172 0.89844,-0.875 1.56641,-0.875 0.5664,0 1.09375,0.15235 1.47265,0.59766 0.35938,0.42187 0.625,0.91016 0.8086,1.43359 0.19922,0.5625 0.3164,1.14844 0.35937,1.74219 0.0352,0.51172 0.0625,1.02344 0.0625,1.53516 0,0.22656 0,0.45312 0,0.67968 0,0.19141 -0.0117,0.38672 -0.0469,0.57813 l -0.008,0.0547 -6.58593,0.48437 z m -7.05078,5.75 c 0,-0.80859 -0.32032,-1.47656 -0.92188,-2.00781 -0.67187,-0.59375 -1.45312,-1.06641 -2.26172,-1.45313 -0.96484,-0.46484 -1.95703,-0.86718 -2.96093,-1.23437 -1.01172,-0.36719 -2,-0.78906 -2.94922,-1.28906 -0.82032,-0.4336 -1.59375,-0.96485 -2.24219,-1.625 -0.60938,-0.6211 -0.89453,-1.37891 -0.89453,-2.2461 0,-1.11718 0.35156,-2.10547 1.32422,-2.73047 0.96093,-0.61718 2.0664,-0.85546 3.19922,-0.85546 1.29296,0 2.58203,0.2539 3.67187,0.98046 1.07813,0.71875 1.45703,1.84766 1.45703,3.09766 0,0.52344 -0.0351,1.04688 -0.10156,1.56641 -0.0703,0.52343 -0.125,1.04687 -0.16797,1.5664 0,0.20703 0.0508,0.39844 0.17578,0.5625 0.13672,0.17188 0.33203,0.23438 0.54297,0.23438 0.21094,0 0.41797,-0.0469 0.59766,-0.16406 0.17968,-0.11329 0.2539,-0.28907 0.25781,-0.50391 l 0.19922,-2.70313 0.67187,-7.6289 c 0,-0.22266 -0.0781,-0.40235 -0.2539,-0.53906 -0.17188,-0.13672 -0.37891,-0.19532 -0.59766,-0.19532 -0.36719,0 -0.62109,0.16407 -0.72266,0.53125 -0.30078,0.72657 -0.78515,1.32813 -1.57421,1.53125 -0.78516,0.20313 -1.60157,0.27735 -2.41016,0.27735 -0.37891,0 -0.75781,-0.0117 -1.14063,-0.0312 -0.3789,-0.0195 -0.76171,-0.0312 -1.14062,-0.0312 -0.97656,0.043 -1.92969,0.23437 -2.83984,0.58984 -0.87891,0.33984 -1.6875,0.81641 -2.40235,1.43359 -0.68359,0.59375 -1.25,1.29688 -1.65625,2.10938 -0.41797,0.83203 -0.60937,1.71875 -0.60937,2.64844 0,1.08984 0.25781,2.13281 0.94922,2.99609 0.64453,0.80078 1.43359,1.46094 2.33593,1.96094 0.94922,0.53515 1.95703,0.96094 2.9961,1.29687 0.99609,0.32422 1.99218,0.64844 2.99218,0.96485 0.78516,0.25 1.57813,0.53906 2.3086,0.92187 0.46875,0.2461 0.91797,0.61719 0.91797,1.19141 0,0.41015 -0.10547,0.79297 -0.35938,1.11719 -0.2539,0.32421 -0.58984,0.55468 -0.95703,0.72656 -0.40234,0.18359 -0.82812,0.30469 -1.26562,0.36719 -0.42188,0.0547 -0.84375,0.0898 -1.26954,0.0898 -0.49218,0 -0.98437,-0.043 -1.47265,-0.0937 -0.63672,-0.0586 -1.26172,-0.19531 -1.875,-0.375 -0.5625,-0.16797 -1.11328,-0.40625 -1.59766,-0.74609 -0.39062,-0.26954 -0.65234,-0.62891 -0.65234,-1.11719 0,-0.56641 0.20703,-0.96094 0.82812,-0.96094 0.25,0 0.61328,0.0273 0.80469,0.20313 0.15234,0.13671 0.27344,0.29687 0.35938,0.48046 0.082,0.16797 0.17187,0.33594 0.27343,0.4961 0.1211,0.19531 0.36328,0.23828 0.57813,0.23828 0.48437,0 0.78515,-0.21875 0.78515,-0.72656 0,-0.69532 -0.39062,-1.19141 -0.96484,-1.54688 -0.55078,-0.34765 -1.17578,-0.59375 -1.83594,-0.59375 -0.72265,0 -1.39062,0.19141 -1.94922,0.66016 -0.53515,0.44922 -0.78906,1.03125 -0.78906,1.72656 0,0.75 0.28516,1.37109 0.85938,1.85547 0.59765,0.50391 1.29297,0.875 2.02734,1.14453 0.79688,0.29297 1.625,0.5 2.46484,0.62109 0.71094,0.10157 1.4336,0.1836 2.15625,0.1836 0.83204,0 1.65625,-0.10938 2.46485,-0.3086 0.79687,-0.19921 1.5625,-0.5 2.26562,-0.92968 0.66016,-0.40625 1.23438,-0.92188 1.69141,-1.55078 0.47266,-0.64844 0.67969,-1.38672 0.67969,-2.1836 z M 95.6914,94.4059 c -0.45313,0 -0.90625,0.043 -1.35547,0.0937 -0.58985,0.0703 -1.17578,0.13281 -1.76563,0.19141 -0.61328,0.0664 -1.22656,0.14062 -1.83594,0.22656 -0.49218,0.0703 -0.98046,0.13672 -1.48046,0.1914 -0.48438,0 -0.6836,0.29297 -0.6836,0.75 0,0.4961 0.25781,0.75391 0.75781,0.75391 0.4961,0 0.99219,-0.0352 1.48438,-0.0977 0.45312,-0.0547 0.90234,-0.12109 1.35156,-0.20312 l 0.0781,-0.0117 0.82812,10.01563 -2.98047,0.3164 c -0.48437,0 -0.68359,0.29297 -0.68359,0.75 0,0.4961 0.25781,0.75 0.75781,0.75 h 0.0586 l 9.0039,-0.83203 c 0.41797,-0.082 0.69141,-0.30469 0.69141,-0.75 0,-0.49609 -0.25781,-0.75 -0.75391,-0.75 -0.48437,0 -0.96875,0.0312 -1.45312,0.0937 -0.4375,0.0586 -0.8711,0.10938 -1.3125,0.14844 l -0.0781,0.008 0.125,-10.89453 c 0,-0.49609 -0.2539,-0.75 -0.7539,-0.75 z m -13.94922,17.81641 c -0.008,0.10156 -0.0156,0.20703 -0.0274,0.3125 -0.0195,0.21875 -0.0195,0.4414 0.004,0.66015 0.0195,0.20703 0.0977,0.39844 0.23437,0.5586 0.16016,0.1875 0.39063,0.21484 0.625,0.17578 l 5.07813,-0.64063 c 0.46094,-0.043 0.67969,-0.3125 0.67969,-0.76953 0,-0.21875 -0.0937,-0.38281 -0.27735,-0.5 -0.16406,-0.10156 -0.34375,-0.16797 -0.53515,-0.16797 l -2.33203,0.3125 0.008,-0.0898 c 0.082,-0.95703 0.16406,-1.91406 0.24609,-2.8711 0.082,-1.0039 0.125,-2.01171 0.125,-3.02343 0,-1.52344 -0.13672,-3.05469 -0.48047,-4.54297 -0.30078,-1.29688 -0.8164,-2.54297 -1.61718,-3.61328 -0.78125,-1.04297 -1.79297,-1.82422 -2.97657,-2.36328 -1.39062,-0.62891 -2.96875,-0.83594 -4.48828,-0.83594 -0.6914,0 -1.38281,0.0742 -2.0664,0.19531 -0.71875,0.125 -1.41407,0.34766 -2.07032,0.67578 -0.625,0.3086 -1.16797,0.73828 -1.58984,1.29297 -0.45313,0.59375 -0.62109,1.30859 -0.62109,2.04297 0,0.58203 0.15234,1.12109 0.49218,1.59766 0.32813,0.46093 0.75,0.83984 1.23438,1.13281 0.51172,0.3125 1.07031,0.53515 1.65234,0.67969 0.55078,0.13671 1.11719,0.22265 1.6836,0.22265 0.19531,0 0.36718,-0.0781 0.51171,-0.20312 0.16797,-0.14063 0.24219,-0.32813 0.24219,-0.54688 0,-0.36719 -0.1914,-0.58594 -0.55078,-0.65625 -0.37891,-0.0703 -0.75,-0.14453 -1.125,-0.22265 -0.40625,-0.0859 -0.77734,-0.25782 -1.10547,-0.50391 -0.42187,-0.3125 -0.49609,-0.94922 -0.49609,-1.43359 0,-0.48438 0.10937,-0.95704 0.40625,-1.34766 0.28125,-0.36328 0.63281,-0.64453 1.04687,-0.85156 0.4336,-0.21485 0.89453,-0.35938 1.36719,-0.44141 0.45313,-0.0781 0.91406,-0.12891 1.375,-0.12891 0.94922,0 1.92188,0.16407 2.73828,0.66407 0.71094,0.4375 1.28125,1.01562 1.6875,1.74218 0.42578,0.76172 0.69141,1.59375 0.83203,2.44922 0.14844,0.91797 0.22657,1.84766 0.22657,2.77735 v 1.02734 l -0.0899,-0.0195 c -0.52344,-0.12109 -1.05859,-0.19922 -1.59765,-0.25391 -0.57813,-0.0586 -1.16016,-0.0976 -1.73829,-0.0976 -0.95703,0 -1.91015,0.0312 -2.86328,0.0664 -1.16015,0.043 -2.3164,0.1875 -3.44922,0.44922 -1.03906,0.23828 -2.03515,0.63672 -2.91015,1.25391 -0.85938,0.60937 -1.24219,1.46484 -1.24219,2.5039 0,0.90235 0.25,1.73438 0.91406,2.3711 0.64063,0.61328 1.40625,1.05078 2.23438,1.35547 0.89453,0.32422 1.82812,0.52734 2.77734,0.60937 0.82422,0.0742 1.65235,0.12891 2.48047,0.12891 0.91406,0 1.85156,-0.16406 2.74219,-0.36328 0.84765,-0.19141 1.72265,-0.44532 2.5,-0.83985 l 0.11328,-0.0547 z m 0.13281,-5.66407 -0.0625,3.63282 -0.0234,0.0234 c -0.71875,0.62891 -1.55078,1.05469 -2.48047,1.28907 -0.93359,0.23046 -1.88672,0.34765 -2.84765,0.34765 -0.45313,0 -0.90235,-0.0351 -1.34766,-0.0937 -0.46094,-0.0625 -0.91016,-0.1914 -1.33203,-0.39062 -0.40234,-0.17969 -0.76172,-0.42188 -1.04688,-0.75782 -0.30078,-0.35156 -0.40625,-0.78125 -0.40625,-1.23828 0,-0.60547 0.20704,-1.13281 0.65625,-1.54297 0.46875,-0.42968 1.01172,-0.75 1.59375,-0.99609 0.625,-0.26172 1.28125,-0.44531 1.95313,-0.55078 0.57031,-0.0898 1.15234,-0.16016 1.72656,-0.16016 0.61328,0 1.22266,0.0352 1.82813,0.0977 0.58593,0.0586 1.16797,0.16797 1.73437,0.32422 l 0.0547,0.0156"
       id="path14" />
  </g>
</svg>
